<?xml version="1.0" encoding="UTF-8"?><svg id="Laag_1" xmlns="http://www.w3.org/2000/svg" width="38.485" height="38.3697" viewBox="0 0 38.485 38.3697"><defs><style>.cls-1{fill:#fff;}</style></defs><path d="m38.4627,18.9919c0,2.6198.0341,5.2402-.0107,7.8592-.0366,2.141-.3402,4.2846-1.4805,6.1226-1.3297,2.1433-3.1712,3.7609-5.7023,4.5222-2.367.7119-4.7981.7556-7.2197.8214-3.1589.0859-6.3224.0487-9.4832.0095-1.62-.0201-3.2576-.033-4.8541-.2693-4.6007-.681-7.9841-3.1271-9.2225-7.8279-.3526-1.3383-.4371-2.7738-.4522-4.1667C-.0147,21.2159-.0066,16.3677.0263,11.5203c.02-2.9489.8077-5.7094,2.7881-7.9453C4.3828,1.8044,6.4464.6297,8.8392.3605,11.1256.1034,13.4407.023,15.7442.0062c3.8674-.0281,7.7357.0451,11.6034.0973,1.802.0243,3.5755.3396,5.1853,1.1318,4.0485,1.9923,5.799,5.4338,5.9163,9.7737.0719,2.6591.0133,5.3218.0135,7.9828Zm-35.1676.0877c.0185.0005.037.0011.0555.0016,0,1.6297-.0225,3.2597.0059,4.8889.0326,1.873-.0379,3.763.5138,5.5854.6878,2.2721,2.0433,3.9262,4.3988,4.7039,1.5515.5123,3.1516.567,4.7407.5938,3.7218.0629,7.4457.0435,11.1683.0085,1.4931-.0141,2.992-.0931,4.4757-.2551,2.5345-.2766,4.4031-1.5705,5.5946-3.8261.6688-1.2662.8186-2.6426.8314-4.0189.0461-4.9296.0578-9.86.0222-14.7897-.0078-1.0822-.1489-2.1929-.4295-3.2374-.5635-2.098-1.6992-3.7807-3.877-4.5905-1.5663-.5824-3.1879-.746-4.8352-.7489-3.3276-.0058-6.6553-.0027-9.9828.0227-1.8909.0145-3.7918-.0271-5.6695.1504-2.3416.2213-4.4113.9974-5.6568,3.2541-.6551,1.1871-1.0732,2.4079-1.1291,3.7237-.1207,2.8426-.1565,5.6888-.2271,8.5335Z"/><path d="m19.5407,9.3583c5.6627.0624,9.7331,5.0595,9.5641,10.0586-.1908,5.6455-4.7746,9.5577-10.0508,9.4845-5.6224-.078-9.8026-4.7016-9.7264-9.9876.0784-5.4353,4.9278-9.8204,10.213-9.5555Zm-.237,16.127c3.6794.1684,6.3285-2.9459,6.4482-6.1241.1449-3.8476-2.847-6.6668-6.482-6.6699-4.0451-.0035-6.4097,3.1799-6.4706,6.4453-.0682,3.6579,3.0958,6.4799,6.5043,6.3488Z"/><path d="m27.3535,8.8172c.0271-1.2608,1.082-2.2364,2.3721-2.1936,1.117.037,2.1779,1.1516,2.1432,2.2516-.0374,1.1872-1.1088,2.2537-2.235,2.2249-1.3251-.0339-2.3075-1.0173-2.2803-2.2828Z"/><path class="cls-1" d="m19.3037,25.4853c-3.4085.1311-6.5725-2.6909-6.5043-6.3488.0609-3.2654,2.4254-6.4488,6.4706-6.4453,3.635.0031,6.6269,2.8224,6.482,6.6699-.1197,3.1782-2.7688,6.2925-6.4482,6.1241Z"/></svg>