<?xml version="1.0" encoding="UTF-8"?><svg id="Laag_1" xmlns="http://www.w3.org/2000/svg" width="38.3868" height="31.8719" viewBox="0 0 38.3868 31.8719"><path d="m21.8443,8.5919c1.0321-2.0255,1.7821-4.0003,3.2128-5.5525C26.732,1.2222,28.8736.2388,31.3584.0613c1.3495-.0964,2.726-.1479,3.994.3928,1.3379.5705,2.3567,1.5732,2.6648,3.0027.6623,3.073.4907,6.0606-.9745,8.9597-2.3897,4.7283-5.5644,8.882-9.1547,12.7462-1.1257,1.2116-2.2799,2.4176-3.5544,3.4668-1.1904.98-2.4925,1.8739-3.8653,2.5749-1.3638.6964-2.9145.8398-4.4391.4676-1.1045-.2696-1.8518-1.0796-2.5029-1.9377-.4412-.5814-.7828-1.2417-1.1278-1.8883-.1481-.2776-.101-.6962-.2994-.9019-.7359-.7629-.7226-1.7776-.9984-2.6852-1.0773-3.5458-2.1057-7.1063-3.158-10.6596-.4439-1.499-1.132-2.8929-2.1465-4.078-.2682-.3133-.9501-.474-1.3886-.3987-.5562.0955-1.1376.4147-1.5666.7947-.9046.8012-1.1509.8682-1.9346-.0189-1.3608-1.5405-1.0846-1.4088.1356-2.4332,1.6807-1.411,3.3886-2.7904,5.094-4.1723.7768-.6294,1.5193-1.3279,2.3776-1.8247,1.2989-.7519,2.699-1.3052,4.2686-.92.8735.2144,1.5251.712,2.1126,1.4126,1.617,1.9285,1.6862,4.3308,2.1785,6.6009.5056,2.3315.8945,4.6883,1.4218,7.0146.2708,1.195.6645,2.3752,1.137,3.5069.2175.521.7001.9914,1.1772,1.3217.2238.1549.7759.0196,1.0781-.1557.4192-.2432.7763-.6191,1.1025-.9882,1.7982-2.0352,3.1309-4.3527,4.1722-6.8448.4019-.9617.3476-1.9493.122-2.918-.2131-.9153-1.39-1.5738-2.4824-1.484-.4763.0391-.9578.0594-1.4255.1477-.4565.0862-.8985.2482-1.5316.4299Z"/></svg>