<?xml version="1.0" encoding="UTF-8"?><svg id="Laag_1" xmlns="http://www.w3.org/2000/svg" width="38.4548" height="30.2371" viewBox="0 0 38.4548 30.2371"><path d="m27.814,9.4566c-2.0291-.1333-3.9238.0972-5.7496.7124-2.2842.7697-4.3507,1.974-5.8148,3.8799-1.6993,2.2121-2.5746,4.7272-1.8632,7.5803.2008.8054.0647.9918-.7932.9068-1.2991-.1287-2.5919-.3359-3.8797-.5539-.6401-.1083-1.214-.0789-1.796.2477-.7945.4458-1.6204.8381-2.4431,1.2322-.3277.157-.683.2574-1.1776.4394.0978-.3996.1599-.6458.2182-.8928.1841-.7805.3346-1.5708.5613-2.3389.1556-.5275-.0532-.8309-.4684-1.0737-1.8625-1.0891-2.9015-2.8523-3.8509-4.6743C-.0905,13.2954-.0978,11.5289.1199,9.7789c.2874-2.3095,1.5595-4.1212,3.1804-5.7308C5.652,1.7128,8.5648.5807,11.7937.1606c2.9816-.3879,5.8956-.0959,8.6672,1.1241.5485.2415.9986.8555,1.5417.9235.9997.1252,1.3746.9572,2.0461,1.4318,1.1297.7985,2.0079,1.8665,2.6459,3.0838.4346.8292.7183,1.7361,1.1195,2.7327Zm-7.4119-1.7441c.0014-1.1805-.7364-1.9126-1.9499-1.9347-.9558-.0175-1.7357.8239-1.7441,1.8816-.008,1.0142.7919,1.891,1.7699,1.8171,1.1112-.0839,2.0201-.5033,1.9241-1.764Zm-11.1536,1.7668c1.257.0941,1.8791-1.2079,1.8661-2.0992-.0105-.7149-1.1249-1.5781-1.9792-1.5627-.9745.0177-1.892.9855-1.8588,1.9609.0331.9724.9078,1.727,1.9719,1.701Z"/><path d="m34.9013,30.2341c-.9848.0447-1.6938-.4149-2.3419-.8967-.7355-.5468-1.5085-.6802-2.3606-.5058-3.3433.6843-6.5943.4434-9.6229-1.1729-2.4328-1.2984-4.2323-3.1956-4.9655-5.9451-.5045-1.8917-.2282-3.7214.6-5.4153,1.0061-2.0579,2.672-3.5511,4.7621-4.5279,2.8369-1.3258,5.8279-1.6658,8.8814-1.0413,3.2778.6704,5.9056,2.419,7.6863,5.2429.8293,1.3152.9715,2.8665.8975,4.4207-.0967,2.0308-.8334,3.759-2.3601,5.1374-.4765.4302-.9343.8826-1.4295,1.2903-.4445.366-.5549.7839-.3816,1.3176.2151.6624.4051,1.3328.6349,2.0961Zm-2.639-13.4302c.0526-.7623-.4648-1.3923-1.1804-1.4371-1.1245-.0705-1.846.4787-1.9221,1.4632-.0458.592.8902,1.54,1.5428,1.5625.8098.0279,1.4965-.6715,1.5597-1.5885Zm-9.1996-1.4617c-.9286-.0364-1.5715.5278-1.6141,1.4165-.0458.9553.4521,1.5178,1.3703,1.5481.8037.0265,1.707-.7814,1.739-1.5554.0315-.7602-.6207-1.375-1.4952-1.4092Z"/></svg>