<?xml version="1.0" encoding="UTF-8"?><svg id="Laag_1" xmlns="http://www.w3.org/2000/svg" width="38.5473" height="31.5454" viewBox="0 0 38.5473 31.5454"><path d="m18.8608,10.4436c1.1198-.3602,2.1566-.7156,3.207-1.0259,1.3475-.3981,2.7162-.5355,4.1255-.3388,1.4996.2093,2.6489,1.4125,2.5546,2.9129-.0482.7675-.2783,1.5329-.5022,2.2768-.1323.4396-.0476.6536.3817.7821.3171.0949.6151.2577.935.3378,1.4686.3681,2.4639,1.3734,3.2658,2.5359,1.0438,1.5132,1.0461,3.1956.3225,4.8348-1.0393,2.3544-2.7792,4.0854-4.9585,5.4768-1.4143.9029-2.9301,1.5577-4.4754,2.1092-1.3923.4969-2.8871.781-4.3613.9665-2.3332.2936-4.6924.3543-7.0212-.0742-2.8071-.5165-5.5471-1.2469-7.9358-2.9046-2.1082-1.4631-3.7353-3.2881-4.267-5.8602-.2838-1.373-.0865-2.7458.3822-4.0645.2956-.8316.6032-1.665.9885-2.4579.6566-1.3513,1.529-2.5604,2.5088-3.7131,1.3585-1.5983,2.8402-3.0622,4.4731-4.3717,1.7064-1.3685,3.5751-2.4655,5.6857-3.1294,1.0882-.3423,2.1778-.2543,3.2679-.0828.5195.0817,1.5567,1.3025,1.5638,1.8683.012.9621-.047,1.9251-.0808,2.8875-.0114.3248-.0372.6491-.0599,1.0345Zm-2.2596,3.334c-3.3581.0484-6.5382.6511-9.324,2.7062-1.4252,1.0514-2.5922,2.2839-3.1594,3.9503-.5595,1.644-.4951,3.2902.558,4.774.9567,1.3479,2.1966,2.2972,3.7602,2.9503,1.8938.791,3.8211,1.2029,5.8587,1.2374,2.1815.037,4.3038-.3278,6.319-1.1053,2.6636-1.0277,4.9466-2.5868,6.0756-5.3355.6658-1.6211.6588-3.3448-.3833-4.7769-1.0454-1.4366-2.2818-2.7027-4.1303-3.3186-1.8295-.6095-3.6296-1.1391-5.5744-1.082Z"/><path d="m38.5469,9.8098c-.1114,1.0834-.1648,2.1767-.3517,3.2472-.1665.9541-1.0732,1.4707-1.9383,1.2296-.6575-.1833-.9419-.5265-.9068-1.2133.0229-.4495.1397-.8939.2074-1.3417.2074-1.3735.1967-2.6955-.2888-4.0591-1.1182-3.1406-4.467-5.0682-7.3699-4.7316-.4095.0475-.8333.0479-1.243.0032-.9018-.0983-1.4423-.6416-1.4458-1.3929-.0032-.6866.6468-1.352,1.4554-1.45,4.3504-.5275,7.788,1.0124,10.2569,4.5829,1.0505,1.5192,1.6417,3.2277,1.6245,5.1259Z"/><path d="m30.8323,10.3932c.2188-.9692-.4378-1.7161-1.2243-2.3681-.1896-.1572-.5384-.1249-.8136-.1813-.5969-.1224-1.2144-.1876-1.7839-.3872-.4599-.1612-.6941-.5824-.625-1.0983.072-.5373.435-.9099.924-.957.7513-.0724,1.5327-.0811,2.2743.0427,1.4334.2393,2.3996,1.2377,3.1029,2.3817.7612,1.2383.9274,2.6252.2547,4.0121-.2155.4443-.5072.7736-1.0487.7014-.5761-.0768-.9484-.4249-1.0501-.9876-.0575-.3185-.0104-.6555-.0104-1.1584Z"/><path d="m14.4193,27.7754c-2.3204-.0821-4.028-.7685-5.06-2.2925-.9196-1.358-1.2372-3.0264-.3231-4.629.3769-.6607.8171-1.2865,1.2432-1.9184.1014-.1503.246-.2847.3978-.3868,1.8475-1.2427,3.8388-1.8299,6.0811-1.3343,1.8358.4058,3.1245,1.5292,3.7311,3.2123.623,1.7286.0924,3.3862-1.0777,4.7795-.4994.5947-1.0787,1.2258-1.7619,1.5433-1.1413.5303-2.307,1.1516-3.2305,1.0257Zm-3.9637-3.7673c.1814.2995.3099.6526.5534.8894,1.0718,1.0424,2.6783.4407,3.3825-.596.9666-1.4231.3356-2.6537-1.3919-2.8044-1.3099-.1143-2.3914.9731-2.5441,2.5111Zm5.6026-3.6578c-.4122.3777-.7195.6593-1.0267.9408.2835.2764.5669.5528.8503.8292.2635-.3554.5671-.6913.7599-1.081.0434-.0877-.2995-.3635-.5835-.689Z"/></svg>